<?xml version="1.0" standalone="no"?>
<!DOCTYPE svg PUBLIC "-//W3C//DTD SVG 20010904//EN"
 "http://www.w3.org/TR/2001/REC-SVG-20010904/DTD/svg10.dtd">
<svg version="1.0" xmlns="http://www.w3.org/2000/svg"
 width="512.000000pt" height="512.000000pt" viewBox="0 0 512.000000 512.000000"
 preserveAspectRatio="xMidYMid meet">

<g transform="translate(0.000000,512.000000) scale(0.100000,-0.100000)"
fill="#000000" stroke="none">
<path d="M2707 4470 c-20 -5 -58 -21 -85 -34 -26 -13 -314 -225 -641 -470
l-594 -446 -322 0 c-252 0 -333 -3 -378 -15 -173 -45 -307 -178 -352 -350 -22
-88 -22 -1102 0 -1190 45 -172 179 -305 352 -350 45 -12 126 -15 378 -15 l322
0 594 -446 c360 -271 620 -459 659 -478 59 -28 74 -31 160 -31 86 0 101 3 162
32 93 44 151 100 196 191 l37 76 0 1616 0 1616 -37 76 c-68 136 -188 217 -336
224 -42 2 -94 -1 -115 -6z"/>
<path d="M3615 2706 c-67 -29 -105 -106 -91 -181 9 -47 59 -102 104 -115 25
-8 209 -10 554 -8 504 3 517 4 544 24 53 39 69 71 69 134 0 63 -16 95 -69 134
-27 21 -40 21 -554 23 -423 2 -533 0 -557 -11z"/>
</g>
</svg>
