<?xml version="1.0" standalone="no"?>
<!DOCTYPE svg PUBLIC "-//W3C//DTD SVG 20010904//EN"
 "http://www.w3.org/TR/2001/REC-SVG-20010904/DTD/svg10.dtd">
<svg version="1.0" xmlns="http://www.w3.org/2000/svg"
 width="512.000000pt" height="512.000000pt" viewBox="0 0 512.000000 512.000000"
 preserveAspectRatio="xMidYMid meet">

<g transform="translate(0.000000,512.000000) scale(0.100000,-0.100000)"
fill="#000000" stroke="none">
<path d="M2811 4540 c-23 -5 -62 -20 -85 -34 -22 -14 -319 -265 -658 -560
l-617 -535 -293 -3 c-283 -3 -294 -4 -336 -26 -66 -35 -119 -88 -149 -150
l-28 -57 0 -615 0 -615 28 -57 c34 -70 101 -131 173 -158 50 -18 78 -20 329
-20 l274 0 613 -531 c337 -292 630 -542 651 -555 54 -35 142 -56 202 -48 109
14 211 90 258 192 l22 47 0 1745 0 1745 -24 53 c-59 130 -219 211 -360 182z"/>
<path d="M3979 3061 l-29 -29 0 -181 0 -181 -165 0 c-121 0 -175 -4 -200 -14
-35 -15 -65 -59 -65 -96 0 -37 30 -81 65 -96 25 -10 79 -14 200 -14 l165 0 0
-179 0 -179 31 -31 c49 -49 128 -40 162 19 14 23 17 57 17 198 l0 171 179 3
180 3 30 29 c39 37 47 75 26 120 -27 58 -59 66 -249 66 l-166 0 0 176 0 176
-34 34 c-46 46 -104 48 -147 5z"/>
</g>
</svg>
